<?xml version="1.0" encoding="utf-8"?>
<!-- Author: liuyib <https://github.com/liuyib> -->

<svg t="1599015573598" class="icon" viewBox="0 0 1024 1024" version="1.1" xmlns="http://www.w3.org/2000/svg" p-id="1050" width="200" height="200"><path d="M512 912.695652c221.295304 0 400.695652-179.400348 400.695652-400.695652S733.295304 111.304348 512 111.304348 111.304348 290.704696 111.304348 512s179.400348 400.695652 400.695652 400.695652z" fill="#0B77E3" fill-opacity=".2" p-id="1051"></path><path d="M155.826087 300.521739v534.249739A11.130435 11.130435 0 0 0 166.878609 845.913043h690.142608C863.165217 845.913043 868.173913 840.859826 868.173913 834.771478V300.521739H155.826087z" fill="#FFFFFF" p-id="1052"></path><path d="M211.478261 367.293217A11.130435 11.130435 0 0 1 222.608696 356.173913h244.869565c6.144 0 11.130435 4.930783 11.130435 11.119304v11.152696A11.130435 11.130435 0 0 1 467.478261 389.565217H222.608696c-6.144 0-11.130435-4.930783-11.130435-11.119304v-11.152696z m289.391304 0c0-6.144 4.964174-11.119304 11.108174-11.119304h77.957565c6.13287 0 11.108174 4.930783 11.108174 11.119304v11.152696a11.108174 11.108174 0 0 1-11.108174 11.119304h-77.957565a11.074783 11.074783 0 0 1-11.108174-11.119304v-11.152696z m122.434783 0c0-6.144 4.930783-11.119304 11.119304-11.119304h11.152696c6.144 0 11.119304 4.930783 11.119304 11.119304v11.152696a11.085913 11.085913 0 0 1-11.119304 11.119304h-11.152696a11.085913 11.085913 0 0 1-11.119304-11.119304v-11.152696z m55.652174 0c0-6.144 4.930783-11.119304 11.119304-11.119304h11.152696c6.144 0 11.119304 4.930783 11.119304 11.119304v11.152696a11.085913 11.085913 0 0 1-11.119304 11.119304h-11.152696a11.085913 11.085913 0 0 1-11.119304-11.119304v-11.152696z m-467.478261 55.652174c0-6.144 4.930783-11.119304 11.119304-11.119304h11.152696c6.144 0 11.119304 4.930783 11.119304 11.119304v11.152696a11.085913 11.085913 0 0 1-11.119304 11.119304h-11.152696a11.085913 11.085913 0 0 1-11.119304-11.119304v-11.152696z m55.652174 0c0-6.144 5.064348-11.119304 11.074782-11.119304h256.111305c6.121739 0 11.074783 4.930783 11.074782 11.119304v11.152696c0 6.144-5.064348 11.119304-11.074782 11.119304h-256.111305a11.063652 11.063652 0 0 1-11.074782-11.119304v-11.152696z m300.521739 0c0-6.144 4.897391-11.119304 11.152696-11.119304h222.564173a11.108174 11.108174 0 0 1 11.152696 11.119304v11.152696c0 6.144-4.897391 11.119304-11.152696 11.119304H578.80487A11.108174 11.108174 0 0 1 567.652174 434.098087v-11.152696z m-356.173913 55.652174c0-6.144 4.997565-11.119304 11.208348-11.119304h144.539826a11.130435 11.130435 0 0 1 11.208348 11.119304v11.152696c0 6.144-4.997565 11.119304-11.208348 11.119304H222.686609A11.130435 11.130435 0 0 1 211.478261 489.750261v-11.152696z m189.217391 0c0-6.144 4.930783-11.119304 11.119305-11.119304h11.152695c6.144 0 11.119304 4.930783 11.119305 11.119304v11.152696a11.085913 11.085913 0 0 1-11.119305 11.119304h-11.152695a11.085913 11.085913 0 0 1-11.119305-11.119304v-11.152696z m55.652174 0c0-6.144 4.930783-11.119304 11.119304-11.119304h11.152696c6.144 0 11.119304 4.930783 11.119304 11.119304v11.152696a11.085913 11.085913 0 0 1-11.119304 11.119304h-11.152696a11.085913 11.085913 0 0 1-11.119304-11.119304v-11.152696z m55.652174 0A11.108174 11.108174 0 0 1 523.130435 467.478261h155.826087c6.144 0 11.130435 4.930783 11.130435 11.119304v11.152696A11.108174 11.108174 0 0 1 678.956522 500.869565H523.130435c-6.144 0-11.130435-4.930783-11.130435-11.119304v-11.152696z m-300.521739 55.652174c0-6.144 4.964174-11.119304 11.108174-11.119304h77.957565c6.13287 0 11.108174 4.930783 11.108174 11.119304v11.152696a11.108174 11.108174 0 0 1-11.108174 11.119304h-77.957565a11.074783 11.074783 0 0 1-11.108174-11.119304v-11.152696z m122.434782 0c0-6.144 5.008696-11.119304 11.208348-11.119304h133.409392a11.130435 11.130435 0 0 1 11.208347 11.119304v11.152696c0 6.144-5.008696 11.119304-11.208347 11.119304H345.121391A11.130435 11.130435 0 0 1 333.913043 545.402435v-11.152696z m178.086957 0A11.074783 11.074783 0 0 1 523.163826 523.130435h233.672348a11.108174 11.108174 0 0 1 11.163826 11.119304v11.152696a11.074783 11.074783 0 0 1-11.163826 11.119304H523.163826A11.108174 11.108174 0 0 1 512 545.402435v-11.152696z m-300.521739 55.652174A11.097043 11.097043 0 0 1 222.608696 578.782609h33.391304c6.144 0 11.130435 4.930783 11.130435 11.119304v11.152696A11.097043 11.097043 0 0 1 256 612.173913h-33.391304c-6.144 0-11.130435-4.930783-11.130435-11.119304v-11.152696z m77.913043 0c0-6.144 4.930783-11.119304 11.119305-11.119304h11.152695c6.144 0 11.119304 4.930783 11.119305 11.119304v11.152696a11.085913 11.085913 0 0 1-11.119305 11.119304h-11.152695a11.085913 11.085913 0 0 1-11.119305-11.119304v-11.152696z m55.652174 0c0-6.144 5.075478-11.119304 11.074783-11.119304h89.154782c6.121739 0 11.074783 4.930783 11.074783 11.119304v11.152696c0 6.144-5.075478 11.119304-11.074783 11.119304h-89.154782a11.063652 11.063652 0 0 1-11.074783-11.119304v-11.152696z m-133.565217 55.652174a11.130435 11.130435 0 0 1 11.074782-11.119304h189.328696c6.121739 0 11.074783 4.930783 11.074783 11.119304v11.152696a11.130435 11.130435 0 0 1-11.074783 11.119304h-189.328696a11.063652 11.063652 0 0 1-11.074782-11.119304v-11.152696z m0 55.652174c0-6.144 5.008696-11.119304 11.208348-11.119304h133.409391a11.130435 11.130435 0 0 1 11.208348 11.119304v11.152696c0 6.144-5.008696 11.119304-11.208348 11.119304H222.686609A11.130435 11.130435 0 0 1 211.478261 712.358957v-11.152696z m178.086956 0c0-6.144 4.930783-11.119304 11.119305-11.119304h11.152695c6.144 0 11.119304 4.930783 11.119305 11.119304v11.152696a11.085913 11.085913 0 0 1-11.119305 11.119304h-11.152695a11.085913 11.085913 0 0 1-11.119305-11.119304v-11.152696z m-178.086956 55.652174c0-6.144 4.930783-11.119304 11.119304-11.119305h11.152696c6.144 0 11.119304 4.930783 11.119304 11.119305v11.152695a11.085913 11.085913 0 0 1-11.119304 11.119305h-11.152696a11.085913 11.085913 0 0 1-11.119304-11.119305v-11.152695z m55.652174 0c0-6.144 4.930783-11.119304 11.119304-11.119305h11.152696c6.144 0 11.119304 4.930783 11.119304 11.119305v11.152695a11.085913 11.085913 0 0 1-11.119304 11.119305h-11.152696a11.085913 11.085913 0 0 1-11.119304-11.119305v-11.152695z m55.652174 0c0-6.144 5.075478-11.119304 11.152695-11.119305h111.259826a11.108174 11.108174 0 0 1 11.152696 11.119305v11.152695c0 6.144-5.075478 11.119304-11.152696 11.119305h-111.259826A11.108174 11.108174 0 0 1 322.782609 768.01113v-11.152695zM155.826087 200.314435c0-6.121739 4.930783-11.097043 11.186087-11.097044h689.975652c6.177391 0 11.186087 5.042087 11.186087 11.097044V278.26087H155.826087v-77.946435z" fill="#40A0FF" p-id="1053"></path><path d="M623.304348 367.293217c0-6.144 4.930783-11.119304 11.119304-11.119304h11.152696c6.144 0 11.119304 4.930783 11.119304 11.119304v11.152696a11.085913 11.085913 0 0 1-11.119304 11.119304h-11.152696a11.085913 11.085913 0 0 1-11.119304-11.119304v-11.152696z m-411.826087 55.652174c0-6.144 4.930783-11.119304 11.119304-11.119304h11.152696c6.144 0 11.119304 4.930783 11.119304 11.119304v11.152696a11.085913 11.085913 0 0 1-11.119304 11.119304h-11.152696a11.085913 11.085913 0 0 1-11.119304-11.119304v-11.152696z m356.173913 0c0-6.144 4.897391-11.119304 11.152696-11.119304h222.564173a11.108174 11.108174 0 0 1 11.152696 11.119304v11.152696c0 6.144-4.897391 11.119304-11.152696 11.119304H578.80487A11.108174 11.108174 0 0 1 567.652174 434.098087v-11.152696z m-166.956522 55.652174c0-6.144 4.930783-11.119304 11.119305-11.119304h11.152695c6.144 0 11.119304 4.930783 11.119305 11.119304v11.152696a11.085913 11.085913 0 0 1-11.119305 11.119304h-11.152695a11.085913 11.085913 0 0 1-11.119305-11.119304v-11.152696z m55.652174 0c0-6.144 4.930783-11.119304 11.119304-11.119304h11.152696c6.144 0 11.119304 4.930783 11.119304 11.119304v11.152696a11.085913 11.085913 0 0 1-11.119304 11.119304h-11.152696a11.085913 11.085913 0 0 1-11.119304-11.119304v-11.152696z m-244.869565 55.652174c0-6.144 4.964174-11.119304 11.108174-11.119304h77.957565c6.13287 0 11.108174 4.930783 11.108174 11.119304v11.152696a11.108174 11.108174 0 0 1-11.108174 11.119304h-77.957565a11.074783 11.074783 0 0 1-11.108174-11.119304v-11.152696z m133.565217 55.652174c0-6.144 5.075478-11.119304 11.074783-11.119304h89.154782c6.121739 0 11.074783 4.930783 11.074783 11.119304v11.152696c0 6.144-5.075478 11.119304-11.074783 11.119304h-89.154782a11.063652 11.063652 0 0 1-11.074783-11.119304v-11.152696z m-133.565217 111.304348c0-6.144 5.008696-11.119304 11.208348-11.119304h133.409391a11.130435 11.130435 0 0 1 11.208348 11.119304v11.152696c0 6.144-5.008696 11.119304-11.208348 11.119304H222.686609A11.130435 11.130435 0 0 1 211.478261 712.358957v-11.152696z m55.652174 55.652174c0-6.144 4.930783-11.119304 11.119304-11.119305h11.152696c6.144 0 11.119304 4.930783 11.119304 11.119305v11.152695a11.085913 11.085913 0 0 1-11.119304 11.119305h-11.152696a11.085913 11.085913 0 0 1-11.119304-11.119305v-11.152695z" fill="#A6D2FF" p-id="1054"></path><path d="M133.565217 200.347826c0-18.476522 14.925913-33.391304 33.446957-33.391304h689.975652A33.369043 33.369043 0 0 1 890.434783 200.347826v634.434783c0 18.476522-14.925913 33.391304-33.446957 33.391304h-689.975652A33.369043 33.369043 0 0 1 133.565217 834.782609V200.347826z m22.26087 100.173913v534.249739A11.130435 11.130435 0 0 0 166.878609 845.913043h690.142608C863.165217 845.913043 868.173913 840.859826 868.173913 834.771478V300.521739H155.826087z m0-100.207304V278.26087h712.347826v-77.946435c0-6.054957-5.008696-11.097043-11.186087-11.097044h-689.975652a11.097043 11.097043 0 0 0-11.186087 11.097044zM726.739478 745.182609l55.095652-55.095652-55.095652-55.095653a11.130435 11.130435 0 1 1 15.738435-15.738434l62.96487 62.964869a11.130435 11.130435 0 0 1 0 15.738435l-62.96487 62.964869a11.130435 11.130435 0 0 1-15.738435-15.738434z m-155.035826 0a11.130435 11.130435 0 1 1-15.738435 15.738434l-62.964869-62.964869a11.130435 11.130435 0 0 1 0-15.738435l62.964869-62.964869a11.130435 11.130435 0 1 1 15.738435 15.738434L516.608 690.086957l55.095652 55.095652z m41.327305 7.401739l55.652173-133.565218c5.709913-13.690435 26.256696-5.13113 20.546783 8.570435l-55.652174 133.565218c-5.709913 13.690435-26.256696 5.13113-20.546782-8.570435zM200.347826 256a22.26087 22.26087 0 1 1 0-44.521739 22.26087 22.26087 0 0 1 0 44.521739z m66.782609 0a22.26087 22.26087 0 1 1 0-44.521739 22.26087 22.26087 0 0 1 0 44.521739z m66.782608 0a22.26087 22.26087 0 1 1 0-44.521739 22.26087 22.26087 0 0 1 0 44.521739z" fill="#005CB9" p-id="1055"></path></svg>